<svg xmlns="http://www.w3.org/2000/svg" xmlns:xlink="http://www.w3.org/1999/xlink" contentStyleType="text/css" data-diagram-type="DESCRIPTION" height="457px" preserveAspectRatio="none" style="width:740px;height:457px;background:#FFFFFF;" version="1.1" viewBox="0 0 740 457" width="740px" zoomAndPan="magnify"><defs/><g><!--entity employee--><g class="entity" data-entity="employee" data-source-line="3" data-uid="ent0002" id="entity_employee"><ellipse cx="175.4387" cy="14" fill="#F1F1F1" rx="8" ry="8" style="stroke:#181818;stroke-width:0.5;"/><path d="M175.4387,22 L175.4387,49 M162.4387,30 L188.4387,30 M175.4387,49 L162.4387,64 M175.4387,49 L188.4387,64" fill="none" style="stroke:#181818;stroke-width:0.5;"/><text fill="#000000" font-family="sans-serif" font-size="14" lengthAdjust="spacing" textLength="60.7236" x="145.0769" y="78.4951">Employ&#233;</text></g><!--entity pdg--><g class="entity" data-entity="pdg" data-source-line="4" data-uid="ent0003" id="entity_pdg"><ellipse cx="387.4425" cy="14" fill="#F1F1F1" rx="8" ry="8" style="stroke:#181818;stroke-width:0.5;"/><path d="M387.4425,22 L387.4425,49 M374.4425,30 L400.4425,30 M387.4425,49 L374.4425,64 M387.4425,49 L400.4425,64" fill="none" style="stroke:#181818;stroke-width:0.5;"/><text fill="#000000" font-family="sans-serif" font-size="14" lengthAdjust="spacing" textLength="30.0713" x="372.4069" y="78.4951">PDG</text></g><!--entity accounting--><g class="entity" data-entity="accounting" data-source-line="5" data-uid="ent0004" id="entity_accounting"><rect fill="#F1F1F1" height="46.2969" rx="2.5" ry="2.5" style="stroke:#181818;stroke-width:0.5;" width="172.5146" x="442.1869" y="405.39"/><rect fill="#F1F1F1" height="10" style="stroke:#181818;stroke-width:0.5;" width="15" x="594.7015" y="410.39"/><rect fill="#F1F1F1" height="2" style="stroke:#181818;stroke-width:0.5;" width="4" x="592.7015" y="412.39"/><rect fill="#F1F1F1" height="2" style="stroke:#181818;stroke-width:0.5;" width="4" x="592.7015" y="416.39"/><text fill="#000000" font-family="sans-serif" font-size="14" lengthAdjust="spacing" textLength="132.5146" x="457.1869" y="438.3851">Service Comptable</text></g><!--entity gemini--><g class="entity" data-entity="gemini" data-source-line="6" data-uid="ent0005" id="entity_gemini"><path d="M16.8802,292.1392 C20.2432,286.2081 24.6597,284.7841 29.1588,290.9899 C31.3062,285.8577 36.1137,284.7124 39.6837,289.4772 C43.8562,282.5238 47.9182,283.1467 52.8185,288.7137 C57.493,283.1631 61.9565,284.4802 65.4629,290.0426 C68.2373,283.9062 71.9216,283.301 76.956,287.5389 C79.7542,282.0979 85.2298,282.1463 88.0031,287.5643 C91.6889,281.9622 97.4959,281.3348 100.6386,288.1185 C105.2964,282.9441 108.8089,283.9633 111.7818,289.8205 C115.1509,283.4867 121.0843,283.4783 124.3226,289.9486 C127.1752,284.3647 132.3056,283.6864 136.0397,289.0009 C140.4794,283.1924 146.7602,284.9014 149.3884,291.0271 C151.8794,285.6402 157.1623,286.144 160.264,290.3335 C167.2981,293.9512 168.2128,301.1013 162.0736,306.2196 C167.9971,310.9886 167.0096,318.265 159.8003,321.0164 C157.3932,328.3085 152.8457,328.8415 147.526,323.951 C144.122,328.8482 140.1613,328.95 136.4028,324.367 C132.9093,330.4918 128.6441,331.8805 123.9475,325.5722 C121.626,332.4238 116.3221,331.6267 112.2621,327.4072 C108.9398,333.5058 103.9531,333.392 99.6066,328.5969 C97.2702,334.9794 92.9,334.9724 88.4605,330.8224 C83.6646,337.0992 78.9959,335.765 76.0448,329.0583 C71.8497,333.7846 66.1416,334.1223 63.8088,327.116 C58.8627,331.8057 55.0553,332.0589 52.2424,325.0135 C48.8616,330.6348 43.7076,329.8245 40.9819,324.3488 C37.3705,329.4272 31.7683,328.6716 29.0295,323.3463 C24.6889,328.4011 19.7438,328.3427 16.4886,322.1374 C8.3394,319.396 6.0276,314.2074 12.2459,307.3451 C6,300.5891 7.4879,294.1291 16.8802,292.1392" fill="#F1F1F1" style="stroke:#181818;stroke-width:0.5;"/><text fill="#000000" font-family="sans-serif" font-size="14" lengthAdjust="spacing" textLength="130.1699" x="22.3569" y="310.0951">Google Gemini API</text></g><!--entity google_sheets--><g class="entity" data-entity="google_sheets" data-source-line="7" data-uid="ent0006" id="entity_google_sheets"><path d="M210.4162,290.2485 C214.4027,284.2668 219.214,283.4687 223.0256,290.4191 C226.3357,283.8453 231.2373,285.1165 235.104,289.8232 C238.1199,283.282 243.2913,283.5671 247.115,289.0137 C250.4405,283.4367 255.892,282.8204 259.7738,288.3815 C262.4826,282.9285 266.9711,283.0314 269.8819,288.189 C272.8071,282.8382 278.701,281.8015 281.9281,287.8705 C285.69,283.1119 290.2783,283.1301 293.6188,288.3635 C297.7018,283.8094 302.6207,284.0837 305.5892,289.6781 C308.9115,282.949 312.914,284.2098 317.2249,288.648 C321.5848,283.5386 327.8157,282.5456 330.7768,290.1401 C334.7285,285.678 338.2054,285.167 341.6372,290.7048 C345.6001,284.6631 349.3676,286.0388 353.0737,290.9724 C361.796,291.8122 365.2941,299.6921 360.1662,306.7557 C366.4716,314.9009 363.0239,322.2403 352.6422,322.3173 C348.7364,328.3561 344.0521,326.9269 340.7772,321.6554 C337.5842,326.5261 333.2792,327.2852 329.8988,321.8534 C326.0764,328.198 321.6564,329.2196 316.9975,322.6917 C313.6091,328.178 309.0321,328.1213 305.3068,323.0654 C302.6428,328.7203 299.3227,329.6011 295.0568,324.6073 C291.4556,329.8319 284.9632,329.5584 281.8404,324.0199 C279.3157,329.0181 274.3773,329.8869 271.5318,324.3332 C267.5882,330.2726 261.4896,330.5767 257.9628,323.8854 C253.704,329.6672 249.7072,327.9314 246.7106,322.6067 C242.5545,327.4638 237.6631,327.8103 234.2347,321.7734 C231.9499,327.7309 226.8934,328.0719 223.5418,322.7881 C219.0163,328.7953 214.3423,327.9738 210.7938,321.7683 C201.9628,319.3433 200.1414,314.0757 205.2286,306.5582 C198.4197,298.7246 200.3274,292.7075 210.4162,290.2485" fill="#F1F1F1" style="stroke:#181818;stroke-width:0.5;"/><text fill="#000000" font-family="sans-serif" font-size="14" lengthAdjust="spacing" textLength="128.1875" x="217.3469" y="310.0951">Google Sheets API</text></g><!--entity email_service--><g class="entity" data-entity="email_service" data-source-line="8" data-uid="ent0007" id="entity_email_service"><rect fill="#F1F1F1" height="46.2969" rx="2.5" ry="2.5" style="stroke:#181818;stroke-width:0.5;" width="152.8203" x="452.0269" y="282.1"/><rect fill="#F1F1F1" height="10" style="stroke:#181818;stroke-width:0.5;" width="15" x="584.8472" y="287.1"/><rect fill="#F1F1F1" height="2" style="stroke:#181818;stroke-width:0.5;" width="4" x="582.8472" y="289.1"/><rect fill="#F1F1F1" height="2" style="stroke:#181818;stroke-width:0.5;" width="4" x="582.8472" y="293.1"/><text fill="#000000" font-family="sans-serif" font-size="14" lengthAdjust="spacing" textLength="112.8203" x="467.0269" y="315.0951">Service d'E-mail</text></g><!--entity expense_app--><g class="entity" data-entity="expense_app" data-source-line="9" data-uid="ent0008" id="entity_expense_app"><rect fill="#F1F1F1" height="46.2969" rx="2.5" ry="2.5" style="stroke:#181818;stroke-width:0.5;" width="223.0801" x="169.8969" y="158.8"/><rect fill="#F1F1F1" height="10" style="stroke:#181818;stroke-width:0.5;" width="15" x="372.977" y="163.8"/><rect fill="#F1F1F1" height="2" style="stroke:#181818;stroke-width:0.5;" width="4" x="370.977" y="165.8"/><rect fill="#F1F1F1" height="2" style="stroke:#181818;stroke-width:0.5;" width="4" x="370.977" y="169.8"/><text fill="#000000" font-family="sans-serif" font-size="14" lengthAdjust="spacing" textLength="183.0801" x="184.8969" y="191.7951">Application Notes de Frais</text></g><!--link employee to expense_app--><g class="link" data-entity-1="employee" data-entity-2="expense_app" data-source-line="11" data-uid="lnk9" id="link_employee_expense_app"><path d="M165.2669,82.27 C163.2169,97.75 163.8669,115.19 172.4369,128.8 C180.3869,141.4 187.0727,148.0868 200.1527,155.4168" fill="none" id="employee-to-expense_app" style="stroke:#181818;stroke-width:1;"/><polygon fill="#181818" points="205.3869,158.35,199.4911,150.4608,201.0251,155.9057,195.5802,157.4396,205.3869,158.35" style="stroke:#181818;stroke-width:1;"/><text fill="#000000" font-family="sans-serif" font-size="13" lengthAdjust="spacing" textLength="170.3394" x="173.4369" y="124.8669">Soumet des notes de frais</text></g><!--link pdg to expense_app--><g class="link" data-entity-1="pdg" data-entity-2="expense_app" data-source-line="12" data-uid="lnk10" id="link_pdg_expense_app"><path d="M374.6069,82.01 C368.2169,97.45 359.4669,114.94 348.4369,128.8 C339.5469,139.99 332.5756,146.6017 321.3856,154.9517" fill="none" id="pdg-to-expense_app" style="stroke:#181818;stroke-width:1;"/><polygon fill="#181818" points="316.5769,158.54,326.1822,156.3634,320.5842,155.5497,321.3978,149.9517,316.5769,158.54" style="stroke:#181818;stroke-width:1;"/><text fill="#000000" font-family="sans-serif" font-size="13" lengthAdjust="spacing" textLength="372.4424" x="360.4369" y="124.8669">Soumet des notes de frais et exporte vers Google Sheets</text></g><!--link expense_app to gemini--><g class="link" data-entity-1="expense_app" data-entity-2="gemini" data-source-line="13" data-uid="lnk11" id="link_expense_app_gemini"><path d="M173.5569,205.51 C155.1369,212.8 137.2069,222.42 122.4369,235.1 C108.2569,247.28 101.1605,260.9644 95.8005,276.0944" fill="none" id="expense_app-to-gemini" style="stroke:#181818;stroke-width:1;"/><polygon fill="#181818" points="93.7969,281.75,100.5726,274.6023,95.4665,277.037,93.0319,271.9309,93.7969,281.75" style="stroke:#181818;stroke-width:1;"/><text fill="#000000" font-family="sans-serif" font-size="13" lengthAdjust="spacing" textLength="146.3833" x="123.4369" y="248.1669">Analyse de justificatifs</text></g><!--link expense_app to email_service--><g class="link" data-entity-1="expense_app" data-entity-2="email_service" data-source-line="14" data-uid="lnk12" id="link_expense_app_email_service"><path d="M393.2769,193.86 C426.7469,201.41 461.8369,214.05 489.4369,235.1 C504.7869,246.8 512.7848,260.8066 518.9048,276.1566" fill="none" id="expense_app-to-email_service" style="stroke:#181818;stroke-width:1;"/><polygon fill="#181818" points="521.1269,281.73,521.5093,271.8886,519.2752,277.0855,514.0782,274.8513,521.1269,281.73" style="stroke:#181818;stroke-width:1;"/><text fill="#000000" font-family="sans-serif" font-size="13" lengthAdjust="spacing" textLength="124.2871" x="504.4369" y="248.1669">Envoi rapports PDF</text></g><!--link email_service to accounting--><g class="link" data-entity-1="email_service" data-entity-2="accounting" data-source-line="15" data-uid="lnk13" id="link_email_service_accounting"><path d="M528.4369,328.78 C528.4369,350.56 528.4369,377.39 528.4369,399.13" fill="none" id="email_service-to-accounting" style="stroke:#181818;stroke-width:1;"/><polygon fill="#181818" points="528.4369,405.13,532.4369,396.13,528.4369,400.13,524.4369,396.13,528.4369,405.13" style="stroke:#181818;stroke-width:1;"/><text fill="#000000" font-family="sans-serif" font-size="13" lengthAdjust="spacing" textLength="116.7778" x="529.4369" y="371.4569">R&#233;ception e-mails</text></g><!--link expense_app to google_sheets--><g class="link" data-entity-1="expense_app" data-entity-2="google_sheets" data-source-line="16" data-uid="lnk14" id="link_expense_app_google_sheets"><path d="M279.6469,205.36 C278.7769,218.89 277.9969,236.48 278.4369,252.1 C278.7169,261.8 278.9147,266.5116 279.4847,275.6816" fill="none" id="expense_app-to-google_sheets" style="stroke:#181818;stroke-width:1;"/><polygon fill="#181818" points="279.8569,281.67,283.2908,272.4392,279.5467,276.6796,275.3062,272.9355,279.8569,281.67" style="stroke:#181818;stroke-width:1;"/><text fill="#000000" font-family="sans-serif" font-size="13" lengthAdjust="spacing" textLength="205.0864" x="279.4369" y="248.1669">&#201;crit les donn&#233;es des d&#233;penses</text></g><!--SRC=[bL5BJiCm4Dtx5ADiMFK2B90g-X4RLD43HCQPf0R7OtcSG8_0KNAEN8o9IzKKkc4HANxptXk_PtwtFkYeM-23hkZ3-WPgxHYLqYPHX6BT1aV7SIX0Cs0-89w7kzKsuw5gbA4sa4UVeDXZxAr1U1GewLU7cQIDeSudMQ6Ceww2OalKE8GjjjPRMEwUCg_9nr-S_G4nyOMJqP8pUcjrTRTUjDgwdslBNycdqPoz3C5PevCb3y-KaA52s4Hj-QJx3EWPIns2KkVii5Wyp2Tm3tlgMaoYPV1dbtfoKLBCV_WWg50f9eGU8yDLUZLtcLnFJOdXqcjtP9nytZfEjiwXwh-AgoP4kFOzMOWobfqCkzL6NLCcqUNXHF4o3WP3RWnpmpUkDNySaOnV9je4RWfAtez3JYpVE6GXVmC0]--></g></svg>