<svg xmlns="http://www.w3.org/2000/svg" xmlns:xlink="http://www.w3.org/1999/xlink" contentStyleType="text/css" data-diagram-type="DESCRIPTION" height="550px" preserveAspectRatio="none" style="width:831px;height:550px;background:#FFFFFF;" version="1.1" viewBox="0 0 831 550" width="831px" zoomAndPan="magnify"><defs/><g><!--cluster Application Mobile (Flutter)--><g class="cluster" data-entity="Application Mobile (Flutter)" data-source-line="8" data-uid="ent0006" id="cluster_Application Mobile (Flutter)"><path d="M8.5,144.8 L228.1201,144.8 A3.75,3.75 0 0 1 230.6201,147.3 L237.6201,167.0969 L237.5,167.0969 A2.5,2.5 0 0 1 240,169.5969 L240,394.48 A2.5,2.5 0 0 1 237.5,396.98 L8.5,396.98 A2.5,2.5 0 0 1 6,394.48 L6,147.3 A2.5,2.5 0 0 1 8.5,144.8" fill="none" style="stroke:#000000;stroke-width:1.5;"/><line style="stroke:#000000;stroke-width:1.5;" x1="6" x2="237.6201" y1="167.0969" y2="167.0969"/><text fill="#000000" font-family="sans-serif" font-size="14" font-weight="bold" lengthAdjust="spacing" textLength="218.6201" x="10" y="159.7951">Application Mobile (Flutter)</text></g><!--cluster Syst?me Comptable--><g class="cluster" data-entity="Syst&#232;me Comptable" data-source-line="13" data-uid="ent0009" id="cluster_Syst&#232;me Comptable"><path d="M622.5,445.98 L781.1436,445.98 A3.75,3.75 0 0 1 783.6436,448.48 L790.6436,468.2769 L821.5,468.2769 A2.5,2.5 0 0 1 824,470.7769 L824,540.78 A2.5,2.5 0 0 1 821.5,543.28 L622.5,543.28 A2.5,2.5 0 0 1 620,540.78 L620,448.48 A2.5,2.5 0 0 1 622.5,445.98" fill="none" style="stroke:#000000;stroke-width:1.5;"/><line style="stroke:#000000;stroke-width:1.5;" x1="620" x2="790.6436" y1="468.2769" y2="468.2769"/><text fill="#000000" font-family="sans-serif" font-size="14" font-weight="bold" lengthAdjust="spacing" textLength="157.6436" x="624" y="460.9751">Syst&#232;me Comptable</text></g><!--entity flutter_app--><g class="entity" data-entity="flutter_app" data-source-line="9" data-uid="ent0007" id="entity_flutter_app"><rect fill="#F1F1F1" height="62.5938" rx="2.5" ry="2.5" style="stroke:#181818;stroke-width:0.5;" width="168.8369" x="53.58" y="179.8"/><rect fill="#F1F1F1" height="10" style="stroke:#181818;stroke-width:0.5;" width="15" x="202.4169" y="184.8"/><rect fill="#F1F1F1" height="2" style="stroke:#181818;stroke-width:0.5;" width="4" x="200.4169" y="186.8"/><rect fill="#F1F1F1" height="2" style="stroke:#181818;stroke-width:0.5;" width="4" x="200.4169" y="190.8"/><text fill="#000000" font-family="sans-serif" font-size="14" lengthAdjust="spacing" textLength="128.8369" x="68.58" y="212.7951">Application Flutter</text><text fill="#000000" font-family="sans-serif" font-size="14" lengthAdjust="spacing" textLength="66.8555" x="68.58" y="229.092">(UI/Logic)</text></g><!--entity hive_db--><g class="entity" data-entity="hive_db" data-source-line="10" data-uid="ent0008" id="entity_hive_db"><path d="M46.01,329.39 C46.01,319.39 133.9978,319.39 133.9978,319.39 C133.9978,319.39 221.9856,319.39 221.9856,329.39 L221.9856,370.9838 C221.9856,380.9838 133.9978,380.9838 133.9978,380.9838 C133.9978,380.9838 46.01,380.9838 46.01,370.9838 L46.01,329.39" fill="#F1F1F1" style="stroke:#181818;stroke-width:0.5;"/><path d="M46.01,329.39 C46.01,339.39 133.9978,339.39 133.9978,339.39 C133.9978,339.39 221.9856,339.39 221.9856,329.39" fill="none" style="stroke:#181818;stroke-width:0.5;"/><text fill="#000000" font-family="sans-serif" font-size="14" lengthAdjust="spacing" textLength="155.9756" x="56.01" y="356.3851">Base de donn&#233;es Hive</text><text fill="#000000" font-family="sans-serif" font-size="14" lengthAdjust="spacing" textLength="57.668" x="56.01" y="372.682">(NoSQL)</text></g><!--entity accounting_system--><g class="entity" data-entity="accounting_system" data-source-line="14" data-uid="ent0010" id="entity_accounting_system"><rect fill="#F1F1F1" height="46.2969" rx="2.5" ry="2.5" style="stroke:#181818;stroke-width:0.5;" width="172.5146" x="635.74" y="480.98"/><rect fill="#F1F1F1" height="10" style="stroke:#181818;stroke-width:0.5;" width="15" x="788.2546" y="485.98"/><rect fill="#F1F1F1" height="2" style="stroke:#181818;stroke-width:0.5;" width="4" x="786.2546" y="487.98"/><rect fill="#F1F1F1" height="2" style="stroke:#181818;stroke-width:0.5;" width="4" x="786.2546" y="491.98"/><text fill="#000000" font-family="sans-serif" font-size="14" lengthAdjust="spacing" textLength="132.5146" x="650.74" y="513.9751">Service Comptable</text></g><!--entity employee--><g class="entity" data-entity="employee" data-source-line="3" data-uid="ent0002" id="entity_employee"><ellipse cx="137.9961" cy="14" fill="#F1F1F1" rx="8" ry="8" style="stroke:#181818;stroke-width:0.5;"/><path d="M137.9961,22 L137.9961,49 M124.9961,30 L150.9961,30 M137.9961,49 L124.9961,64 M137.9961,49 L150.9961,64" fill="none" style="stroke:#181818;stroke-width:0.5;"/><text fill="#000000" font-family="sans-serif" font-size="14" lengthAdjust="spacing" textLength="104.4121" x="85.79" y="78.4951">Employ&#233; / PDG</text></g><!--entity gemini_api--><g class="entity" data-entity="gemini_api" data-source-line="4" data-uid="ent0003" id="entity_gemini_api"><path d="M266.4433,337.0792 C269.8063,331.1481 274.2228,329.7241 278.7219,335.9299 C280.8693,330.7977 285.6768,329.6524 289.2468,334.4172 C293.4194,327.4638 297.4813,328.0867 302.3817,333.6537 C307.0561,328.1031 311.5196,329.4202 315.0261,334.9826 C317.8004,328.8462 321.4847,328.241 326.5191,332.4789 C329.3173,327.0379 334.7929,327.0863 337.5662,332.5043 C341.252,326.9022 347.059,326.2748 350.2017,333.0585 C354.8595,327.8841 358.372,328.9033 361.3449,334.7605 C364.714,328.4267 370.6474,328.4183 373.8857,334.8886 C376.7383,329.3047 381.8687,328.6264 385.6028,333.9409 C390.0425,328.1324 396.3233,329.8414 398.9516,335.9671 C401.4425,330.5802 406.7254,331.084 409.8271,335.2735 C416.8612,338.8912 417.776,346.0413 411.6367,351.1596 C417.5602,355.9286 416.5728,363.205 409.3634,365.9564 C406.9563,373.2485 402.4089,373.7815 397.0891,368.891 C393.6851,373.7882 389.7244,373.89 385.9659,369.307 C382.4724,375.4318 378.2072,376.8205 373.5106,370.5122 C371.1891,377.3638 365.8852,376.5667 361.8252,372.3472 C358.5029,378.4458 353.5162,378.332 349.1698,373.5369 C346.8333,379.9194 342.4631,379.9124 338.0236,375.7624 C333.2277,382.0392 328.559,380.705 325.6079,373.9983 C321.4128,378.7246 315.7047,379.0623 313.3719,372.056 C308.4258,376.7457 304.6184,376.9989 301.8055,369.9535 C298.4247,375.5748 293.2707,374.7645 290.545,369.2888 C286.9336,374.3672 281.3314,373.6116 278.5926,368.2863 C274.252,373.3411 269.3069,373.2827 266.0517,367.0774 C257.9025,364.336 255.5907,359.1474 261.809,352.2851 C255.5631,345.5291 257.051,339.0691 266.4433,337.0792" fill="#F1F1F1" style="stroke:#181818;stroke-width:0.5;"/><text fill="#000000" font-family="sans-serif" font-size="14" lengthAdjust="spacing" textLength="130.1699" x="271.92" y="355.0351">API Google Gemini</text></g><!--entity google_sheets_api--><g class="entity" data-entity="google_sheets_api" data-source-line="5" data-uid="ent0004" id="entity_google_sheets_api"><path d="M459.9793,335.1885 C463.9658,329.2068 468.7771,328.4087 472.5887,335.3591 C475.8989,328.7853 480.8004,330.0565 484.6671,334.7632 C487.683,328.222 492.8544,328.5071 496.6781,333.9537 C500.0036,328.3767 505.4551,327.7604 509.3369,333.3215 C512.0457,327.8685 516.5342,327.9714 519.445,333.129 C522.3702,327.7782 528.2641,326.7415 531.4912,332.8105 C535.2532,328.0519 539.8414,328.0701 543.1819,333.3035 C547.2649,328.7494 552.1838,329.0237 555.1523,334.6181 C558.4746,327.889 562.4771,329.1498 566.7881,333.588 C571.1479,328.4786 577.3788,327.4856 580.3399,335.0801 C584.2916,330.618 587.7685,330.107 591.2003,335.6448 C595.1632,329.6031 598.9307,330.9788 602.6368,335.9124 C611.3591,336.7522 614.8572,344.6321 609.7293,351.6957 C616.0347,359.8409 612.587,367.1803 602.2053,367.2573 C598.2995,373.2961 593.6152,371.8669 590.3403,366.5954 C587.1474,371.4661 582.8423,372.2252 579.4619,366.7934 C575.6395,373.138 571.2195,374.1596 566.5606,367.6317 C563.1723,373.118 558.5953,373.0613 554.8699,368.0054 C552.2059,373.6603 548.8858,374.5411 544.6199,369.5473 C541.0187,374.7719 534.5263,374.4984 531.4035,368.9599 C528.8788,373.9581 523.9404,374.8269 521.0949,369.2732 C517.1513,375.2126 511.0527,375.5167 507.526,368.8254 C503.2671,374.6072 499.2703,372.8714 496.2737,367.5467 C492.1176,372.4038 487.2262,372.7503 483.7978,366.7134 C481.513,372.6709 476.4565,373.0119 473.1049,367.7281 C468.5794,373.7353 463.9054,372.9138 460.3569,366.7083 C451.5259,364.2833 449.7045,359.0157 454.7917,351.4982 C447.9828,343.6646 449.8905,337.6475 459.9793,335.1885" fill="#F1F1F1" style="stroke:#181818;stroke-width:0.5;"/><text fill="#000000" font-family="sans-serif" font-size="14" lengthAdjust="spacing" textLength="128.1875" x="466.91" y="355.0351">API Google Sheets</text></g><!--entity email_service--><g class="entity" data-entity="email_service" data-source-line="6" data-uid="ent0005" id="entity_email_service"><rect fill="#F1F1F1" height="46.2969" rx="2.5" ry="2.5" style="stroke:#181818;stroke-width:0.5;" width="152.8203" x="645.59" y="327.04"/><rect fill="#F1F1F1" height="10" style="stroke:#181818;stroke-width:0.5;" width="15" x="778.4103" y="332.04"/><rect fill="#F1F1F1" height="2" style="stroke:#181818;stroke-width:0.5;" width="4" x="776.4103" y="334.04"/><rect fill="#F1F1F1" height="2" style="stroke:#181818;stroke-width:0.5;" width="4" x="776.4103" y="338.04"/><text fill="#000000" font-family="sans-serif" font-size="14" lengthAdjust="spacing" textLength="112.8203" x="660.59" y="360.0351">Service d'E-mail</text></g><!--link employee to flutter_app--><g class="link" data-entity-1="employee" data-entity-2="flutter_app" data-source-line="17" data-uid="lnk11" id="link_employee_flutter_app"><path d="M138,82.19 C138,111.55 138,145.87 138,173.34" fill="none" id="employee-to-flutter_app" style="stroke:#181818;stroke-width:1;"/><polygon fill="#181818" points="138,179.34,142,170.34,138,174.34,134,170.34,138,179.34" style="stroke:#181818;stroke-width:1;"/><text fill="#000000" font-family="sans-serif" font-size="13" lengthAdjust="spacing" textLength="40.2188" x="139" y="124.8669">Utilise</text></g><!--link flutter_app to hive_db--><g class="link" data-entity-1="flutter_app" data-entity-2="hive_db" data-source-line="18" data-uid="lnk12" id="link_flutter_app_hive_db"><path d="M137.1,242.86 C136.44,265.6 135.7152,290.4026 135.0552,312.9926" fill="none" id="flutter_app-to-hive_db" style="stroke:#181818;stroke-width:1;"/><polygon fill="#181818" points="134.88,318.99,139.1411,310.1107,135.026,313.9921,131.1445,309.877,134.88,318.99" style="stroke:#181818;stroke-width:1;"/><text fill="#000000" font-family="sans-serif" font-size="13" lengthAdjust="spacing" textLength="66.5107" x="138" y="285.4569">Lit et &#233;crit</text></g><!--link flutter_app to gemini_api--><g class="link" data-entity-1="flutter_app" data-entity-2="gemini_api" data-source-line="19" data-uid="lnk13" id="link_flutter_app_gemini_api"><path d="M182.66,242.86 C219.56,268.28 266.1489,300.3762 299.3189,323.2262" fill="none" id="flutter_app-to-gemini_api" style="stroke:#181818;stroke-width:1;"/><polygon fill="#181818" points="304.26,326.63,299.1176,318.2303,300.1424,323.7935,294.5792,324.8184,304.26,326.63" style="stroke:#181818;stroke-width:1;"/><text fill="#000000" font-family="sans-serif" font-size="13" lengthAdjust="spacing" textLength="78.1714" x="251" y="285.4569">HTTPS/JSON</text></g><!--link flutter_app to google_sheets_api--><g class="link" data-entity-1="flutter_app" data-entity-2="google_sheets_api" data-source-line="20" data-uid="lnk14" id="link_flutter_app_google_sheets_api"><path d="M222.69,235.88 C258.5,246.38 300.51,259.31 338,272.39 C385.84,289.08 433.7594,308.2874 472.2594,324.2874" fill="none" id="flutter_app-to-google_sheets_api" style="stroke:#181818;stroke-width:1;"/><polygon fill="#181818" points="477.8,326.59,471.0242,319.4424,473.1828,324.6712,467.9541,326.8299,477.8,326.59" style="stroke:#181818;stroke-width:1;"/><text fill="#000000" font-family="sans-serif" font-size="13" lengthAdjust="spacing" textLength="78.1714" x="382" y="285.4569">HTTPS/JSON</text></g><!--link flutter_app to email_service--><g class="link" data-entity-1="flutter_app" data-entity-2="email_service" data-source-line="21" data-uid="lnk15" id="link_flutter_app_email_service"><path d="M222.87,224.98 C290.05,235.8 386.04,252.63 469,272.39 C540.68,289.46 557.54,297.81 628,319.39 C635.53,321.7 637.6659,322.3316 645.4959,324.7916" fill="none" id="flutter_app-to-email_service" style="stroke:#181818;stroke-width:1;"/><polygon fill="#181818" points="651.22,326.59,643.8327,320.0763,646.4499,325.0913,641.4349,327.7085,651.22,326.59" style="stroke:#181818;stroke-width:1;"/><text fill="#000000" font-family="sans-serif" font-size="13" lengthAdjust="spacing" textLength="132.8691" x="534" y="285.4569">Envoie e-mail + PDF</text></g><!--link email_service to accounting_system--><g class="link" data-entity-1="email_service" data-entity-2="accounting_system" data-source-line="22" data-uid="lnk16" id="link_email_service_accounting_system"><path d="M722,373.61 C722,402.33 722,445.85 722,474.62" fill="none" id="email_service-to-accounting_system" style="stroke:#181818;stroke-width:1;"/><polygon fill="#181818" points="722,480.62,726,471.62,722,475.62,718,471.62,722,480.62" style="stroke:#181818;stroke-width:1;"/><text fill="#000000" font-family="sans-serif" font-size="13" lengthAdjust="spacing" textLength="98.1284" x="723" y="426.0469">D&#233;livre l'e-mail</text></g><!--SRC=[VPBTQi9048NlynH3RbIAUD-BGbj_YxMMw5qXh9in3cvsGtPDaTBtQPuZBzOnKHgRKWXXEVdEp5bEx9vqAZAHWDs9oBoJZc4hb4NF4zAP3FnHaYfpB0iOm78uyK5Om4f2zAGoXmZy- -KC9iR42c622McggBWwXYAbFxXWX-XipLLAQ2kbnasI6etQWHzWbfD4Y3gZVY98dVVpARJr9yzBXToB67b-cYgImf7Hy6msn7kwOtLm3hEU3nyUG6Do4pv3RxgxdWtc9YRPgnPjQvr3fMoEX1CRONdHm-aTyMEqBWkqCAKSsRqmmUkyjkvO2QEDzzd85nojAxyIX4UEmRCKjb9TxjiWU9YGqXoqut92opCmEOszj03z_bqpATp2sf4Yxh2fdgXpA2Rcv00Tb8NCoBMud-eOdQvMos3m5Bmisjplwlx7htfZTAHpGmXODGit_7-DlMlcv6fTdft3ib2KPmYgKxk_0G00]--></g></svg>