<svg xmlns="http://www.w3.org/2000/svg" xmlns:xlink="http://www.w3.org/1999/xlink" contentStyleType="text/css" data-diagram-type="DESCRIPTION" height="359px" preserveAspectRatio="none" style="width:549px;height:359px;background:#FFFFFF;" version="1.1" viewBox="0 0 549 359" width="549px" zoomAndPan="magnify"><defs/><g><!--entity demander--><g class="entity" data-entity="demander" data-source-line="3" data-uid="ent0002" id="entity_demander"><ellipse cx="47.3062" cy="14" fill="#F1F1F1" rx="8" ry="8" style="stroke:#181818;stroke-width:0.5;"/><path d="M47.3062,22 L47.3062,49 M34.3062,30 L60.3062,30 M47.3062,49 L34.3062,64 M47.3062,49 L60.3062,64" fill="none" style="stroke:#181818;stroke-width:0.5;"/><text fill="#000000" font-family="sans-serif" font-size="14" lengthAdjust="spacing" textLength="82.6123" x="6" y="78.4951">Demandeur</text></g><!--entity accountant--><g class="entity" data-entity="accountant" data-source-line="4" data-uid="ent0003" id="entity_accountant"><ellipse cx="246.3016" cy="14" fill="#F1F1F1" rx="8" ry="8" style="stroke:#181818;stroke-width:0.5;"/><path d="M246.3016,22 L246.3016,49 M233.3016,30 L259.3016,30 M246.3016,49 L233.3016,64 M246.3016,49 L259.3016,64" fill="none" style="stroke:#181818;stroke-width:0.5;"/><text fill="#000000" font-family="sans-serif" font-size="14" lengthAdjust="spacing" textLength="76.3232" x="208.14" y="78.4951">Comptable</text></g><!--entity validator--><g class="entity" data-entity="validator" data-source-line="5" data-uid="ent0004" id="entity_validator"><ellipse cx="474.3067" cy="14" fill="#F1F1F1" rx="8" ry="8" style="stroke:#181818;stroke-width:0.5;"/><path d="M474.3067,22 L474.3067,49 M461.3067,30 L487.3067,30 M474.3067,49 L461.3067,64 M474.3067,49 L487.3067,64" fill="none" style="stroke:#181818;stroke-width:0.5;"/><text fill="#000000" font-family="sans-serif" font-size="14" lengthAdjust="spacing" textLength="108.7734" x="419.92" y="78.4951">Validateur Chef</text></g><!--entity reimbursement_app--><g class="entity" data-entity="reimbursement_app" data-source-line="7" data-uid="ent0005" id="entity_reimbursement_app"><rect fill="#F1F1F1" height="46.2969" rx="2.5" ry="2.5" style="stroke:#181818;stroke-width:0.5;" width="333.8154" x="79.4" y="158.8"/><rect fill="#F1F1F1" height="10" style="stroke:#181818;stroke-width:0.5;" width="15" x="393.2154" y="163.8"/><rect fill="#F1F1F1" height="2" style="stroke:#181818;stroke-width:0.5;" width="4" x="391.2154" y="165.8"/><rect fill="#F1F1F1" height="2" style="stroke:#181818;stroke-width:0.5;" width="4" x="391.2154" y="169.8"/><text fill="#000000" font-family="sans-serif" font-size="14" lengthAdjust="spacing" textLength="293.8154" x="94.4" y="191.7951">Application Gestion des Remboursements</text></g><!--entity file_system--><g class="entity" data-entity="file_system" data-source-line="8" data-uid="ent0006" id="entity_file_system"><path d="M149.91,282.1 L190.91,282.1 A3.75,3.75 0 0 1 193.41,284.6 L200.41,303.1 L342.6981,303.1 A2.5,2.5 0 0 1 345.1981,305.6 L345.1981,350.1937 A2.5,2.5 0 0 1 342.6981,352.6937 L149.91,352.6937 A2.5,2.5 0 0 1 147.41,350.1937 L147.41,284.6 A2.5,2.5 0 0 1 149.91,282.1" fill="#F1F1F1" style="stroke:#181818;stroke-width:0.5;"/><line style="stroke:#181818;stroke-width:0.5;" x1="147.41" x2="200.41" y1="303.1" y2="303.1"/><text fill="#000000" font-family="sans-serif" font-size="14" lengthAdjust="spacing" textLength="167.7881" x="157.41" y="323.0951">Lecteur R&#233;seau Partag&#233;</text><text fill="#000000" font-family="sans-serif" font-size="14" lengthAdjust="spacing" textLength="147.998" x="157.41" y="339.392">(DB + pi&#232;ces jointes)</text></g><!--link demander to reimbursement_app--><g class="link" data-entity-1="demander" data-entity-2="reimbursement_app" data-source-line="10" data-uid="lnk7" id="link_demander_reimbursement_app"><path d="M51.99,82.29 C55.81,98.52 62.74,116.55 75.31,128.8 C88.31,141.48 98.7775,148.711 115.7175,155.991" fill="none" id="demander-to-reimbursement_app" style="stroke:#181818;stroke-width:1;"/><polygon fill="#181818" points="121.23,158.36,114.5406,151.1315,116.6362,156.3858,111.3819,158.4815,121.23,158.36" style="stroke:#181818;stroke-width:1;"/><text fill="#000000" font-family="sans-serif" font-size="13" lengthAdjust="spacing" textLength="157.2759" x="76.31" y="124.8669">Cr&#233;e/Soumet demandes</text></g><!--link accountant to reimbursement_app--><g class="link" data-entity-1="accountant" data-entity-2="reimbursement_app" data-source-line="11" data-uid="lnk8" id="link_accountant_reimbursement_app"><path d="M243.95,81.93 C243.29,96.54 242.87,113.46 243.31,128.8 C243.58,138.5 243.7778,143.2116 244.3478,152.3816" fill="none" id="accountant-to-reimbursement_app" style="stroke:#181818;stroke-width:1;"/><polygon fill="#181818" points="244.72,158.37,248.1539,149.1392,244.4098,153.3796,240.1693,149.6355,244.72,158.37" style="stroke:#181818;stroke-width:1;"/><text fill="#000000" font-family="sans-serif" font-size="13" lengthAdjust="spacing" textLength="186.0371" x="244.31" y="124.8669">V&#233;rifie/Accepte/Rejette/Paye</text></g><!--link validator to reimbursement_app--><g class="link" data-entity-1="validator" data-entity-2="reimbursement_app" data-source-line="12" data-uid="lnk9" id="link_validator_reimbursement_app"><path d="M464.7,82.22 C458.74,98.63 449.43,116.83 435.31,128.8 C420.37,141.45 408.2061,148.8601 389.6361,156.1401" fill="none" id="validator-to-reimbursement_app" style="stroke:#181818;stroke-width:1;"/><polygon fill="#181818" points="384.05,158.33,393.8891,158.7692,388.7051,156.5051,390.9692,151.3211,384.05,158.33" style="stroke:#181818;stroke-width:1;"/><text fill="#000000" font-family="sans-serif" font-size="13" lengthAdjust="spacing" textLength="91.5459" x="450.31" y="124.8669">Valide/Rejette</text></g><!--link reimbursement_app to file_system--><g class="link" data-entity-1="reimbursement_app" data-entity-2="file_system" data-source-line="13" data-uid="lnk10" id="link_reimbursement_app_file_system"><path d="M246.31,205.58 C246.31,226.48 246.31,272.82 246.31,296.84" fill="none" id="reimbursement_app-to-file_system" style="stroke:#181818;stroke-width:1;"/><polygon fill="#181818" points="246.31,302.84,250.31,293.84,246.31,297.84,242.31,293.84,246.31,302.84" style="stroke:#181818;stroke-width:1;"/><text fill="#000000" font-family="sans-serif" font-size="13" lengthAdjust="spacing" textLength="149.4111" x="247.31" y="248.1669">Lit/&#201;crit (DB + fichiers)</text></g><!--SRC=[TP1DQiD038NtSmhXLKC9tdTHI1Fe9ekGGbQ5e8pbHAddXv7SaYFq9lKvVB5E79mMGbPYzDudpPDyi8-Oq84Si0fVxFTGOoDa35eD2Oe5EVGLjQa05AWkhpIgy-2YugwXGKLhG-iLlOxw1XkkK3CEymFLW-lpqWl969lnuCah5BCO6xQe73oyaWor8e4rkLreav3BDXa696At6rjRZD7KeScVWc99TjYrxZiXR665IN7VT-_-OV42Zn2v_x5vw36mLvB9CAxcXhPo4YLdp1WGfjFdsqNm1FFKTrI-XTQHZkSGyvVyBhZfkyGrKpcpbg9IkQOZQQuhF96v7kK-VtPSANDhEOF_icHaoLhstpQnmYL_pVR0b6Jo2m00]--></g></svg>