<svg xmlns="http://www.w3.org/2000/svg" xmlns:xlink="http://www.w3.org/1999/xlink" contentStyleType="text/css" data-diagram-type="STATE" height="754px" preserveAspectRatio="none" style="width:789px;height:754px;background:#FFFFFF;" version="1.1" viewBox="0 0 789 754" width="789px" zoomAndPan="magnify"><defs/><g><path d="M19.5,595 L96.8047,595 A12.5,12.5 0 0 1 109.3047,607.5 L109.3047,621.2969 L7,621.2969 L7,607.5 A12.5,12.5 0 0 1 19.5,595" fill="#F1F1F1" style="stroke:#F1F1F1;stroke-width:1;"/><rect fill="none" height="153.2969" rx="12.5" ry="12.5" style="stroke:#181818;stroke-width:0.5;" width="102.3047" x="7" y="595"/><line style="stroke:#181818;stroke-width:0.5;" x1="7" x2="109.3047" y1="621.2969" y2="621.2969"/><text fill="#000000" font-family="sans-serif" font-size="14" lengthAdjust="spacing" textLength="59.5752" x="28.3647" y="612.9951">Cloturee</text><ellipse cx="59.65" cy="642.2969" fill="#222222" rx="10" ry="10" style="stroke:#222222;stroke-width:1;"/><g id="Cloturee.Archivee"><rect fill="#F1F1F1" height="50" rx="12.5" ry="12.5" style="stroke:#181818;stroke-width:0.5;" width="81.3047" x="19" y="688.2969"/><line style="stroke:#181818;stroke-width:0.5;" x1="19" x2="100.3047" y1="714.5938" y2="714.5938"/><text fill="#000000" font-family="sans-serif" font-size="14" lengthAdjust="spacing" textLength="61.3047" x="29" y="706.292">Archivee</text></g><!--link *start*Cloturee to Archivee--><g class="link" data-entity-1="*start*Cloturee" data-entity-2="Archivee" data-source-line="16" data-uid="lnk20" id="link_*start*Cloturee_Archivee"><path d="M59.65,652.6069 C59.65,661.6469 59.65,669.7869 59.65,682.0269" fill="none" id="*start*Cloturee-to-Archivee" style="stroke:#181818;stroke-width:1;"/><polygon fill="#181818" points="59.65,688.0269,63.65,679.0269,59.65,683.0269,55.65,679.0269,59.65,688.0269" style="stroke:#181818;stroke-width:1;"/></g><ellipse cx="419.15" cy="16" fill="#222222" rx="10" ry="10" style="stroke:#222222;stroke-width:1;"/><g id="Creee"><rect fill="#F1F1F1" height="50" rx="12.5" ry="12.5" style="stroke:#181818;stroke-width:0.5;" width="61.3711" x="388.47" y="103"/><line style="stroke:#181818;stroke-width:0.5;" x1="388.47" x2="449.8411" y1="129.2969" y2="129.2969"/><text fill="#000000" font-family="sans-serif" font-size="14" lengthAdjust="spacing" textLength="41.3711" x="398.47" y="120.9951">Creee</text></g><g id="Constat_Accepte"><rect fill="#F1F1F1" height="50" rx="12.5" ry="12.5" style="stroke:#181818;stroke-width:0.5;" width="137.6396" x="157.33" y="230"/><line style="stroke:#181818;stroke-width:0.5;" x1="157.33" x2="294.9696" y1="256.2969" y2="256.2969"/><text fill="#000000" font-family="sans-serif" font-size="14" lengthAdjust="spacing" textLength="117.6396" x="167.33" y="247.9951">Constat_Accepte</text></g><g id="Rejetee_Creation"><rect fill="#F1F1F1" height="50" rx="12.5" ry="12.5" style="stroke:#181818;stroke-width:0.5;" width="140.1006" x="445.1" y="230"/><line style="stroke:#181818;stroke-width:0.5;" x1="445.1" x2="585.2006" y1="256.2969" y2="256.2969"/><text fill="#000000" font-family="sans-serif" font-size="14" lengthAdjust="spacing" textLength="120.1006" x="455.1" y="247.9951">Rejetee_Creation</text></g><g id="Validee"><rect fill="#F1F1F1" height="50" rx="12.5" ry="12.5" style="stroke:#181818;stroke-width:0.5;" width="72.0488" x="22.13" y="357"/><line style="stroke:#181818;stroke-width:0.5;" x1="22.13" x2="94.1788" y1="383.2969" y2="383.2969"/><text fill="#000000" font-family="sans-serif" font-size="14" lengthAdjust="spacing" textLength="52.0488" x="32.13" y="374.9951">Validee</text></g><g id="Rejetee_Constat"><rect fill="#F1F1F1" height="50" rx="12.5" ry="12.5" style="stroke:#181818;stroke-width:0.5;" width="134.625" x="242.84" y="357"/><line style="stroke:#181818;stroke-width:0.5;" x1="242.84" x2="377.465" y1="383.2969" y2="383.2969"/><text fill="#000000" font-family="sans-serif" font-size="14" lengthAdjust="spacing" textLength="114.625" x="252.84" y="374.9951">Rejetee_Constat</text></g><g id="Payee"><rect fill="#F1F1F1" height="50" rx="12.5" ry="12.5" style="stroke:#181818;stroke-width:0.5;" width="62.5332" x="26.89" y="484"/><line style="stroke:#181818;stroke-width:0.5;" x1="26.89" x2="89.4232" y1="510.2969" y2="510.2969"/><text fill="#000000" font-family="sans-serif" font-size="14" lengthAdjust="spacing" textLength="42.5332" x="36.89" y="501.9951">Payee</text></g><!--link *start* to Creee--><g class="link" data-entity-1="*start*" data-entity-2="Creee" data-source-line="3" data-uid="lnk4" id="link_*start*_Creee"><path d="M419.15,26.38 C419.15,43.11 419.15,72.6 419.15,96.63" fill="none" id="*start*-to-Creee" style="stroke:#181818;stroke-width:1;"/><polygon fill="#181818" points="419.15,102.63,423.15,93.63,419.15,97.63,415.15,93.63,419.15,102.63" style="stroke:#181818;stroke-width:1;"/><text fill="#000000" font-family="sans-serif" font-size="13" lengthAdjust="spacing" textLength="102.4067" x="420.15" y="69.0669">par Demandeur</text></g><!--link Creee to Constat_Accepte--><g class="link" data-entity-1="Creee" data-entity-2="Constat_Accepte" data-source-line="4" data-uid="lnk6" id="link_Creee_Constat_Accepte"><path d="M388.05,130.7 C350.5,134.38 287.71,146.07 250.15,183 C237.63,195.32 232.7439,208.4924 229.8839,223.7724" fill="none" id="Creee-to-Constat_Accepte" style="stroke:#181818;stroke-width:1;"/><polygon fill="#181818" points="228.78,229.67,234.3675,221.5595,229.6999,224.7553,226.5041,220.0877,228.78,229.67" style="stroke:#181818;stroke-width:1;"/><text fill="#000000" font-family="sans-serif" font-size="13" lengthAdjust="spacing" textLength="151.2773" x="251.15" y="196.0669">par Compta. Tresorerie</text></g><!--link Creee to Rejetee_Creation--><g class="link" data-entity-1="Creee" data-entity-2="Rejetee_Creation" data-source-line="5" data-uid="lnk8" id="link_Creee_Rejetee_Creation"><path d="M411.8,153.32 C408.88,167.84 407.9,186.11 416.15,200 C423.45,212.29 429.5199,218.8156 441.7899,226.3656" fill="none" id="Creee-to-Rejetee_Creation" style="stroke:#181818;stroke-width:1;"/><polygon fill="#181818" points="446.9,229.51,441.3311,221.3867,442.6416,226.8897,437.1386,228.2002,446.9,229.51" style="stroke:#181818;stroke-width:1;"/><text fill="#000000" font-family="sans-serif" font-size="13" lengthAdjust="spacing" textLength="151.2773" x="417.15" y="196.0669">par Compta. Tresorerie</text></g><!--link Rejetee_Creation to Creee--><g class="link" data-entity-1="Rejetee_Creation" data-entity-2="Creee" data-source-line="6" data-uid="lnk9" id="link_Rejetee_Creation_Creee"><path d="M554.62,229.68 C571.32,216.26 584.57,199.1 573.15,183 C545.29,143.71 492.501,133.2673 456.161,130.3673" fill="none" id="Rejetee_Creation-to-Creee" style="stroke:#181818;stroke-width:1;"/><polygon fill="#181818" points="450.18,129.89,458.8333,134.5933,455.1642,130.2877,459.4697,126.6186,450.18,129.89" style="stroke:#181818;stroke-width:1;"/><text fill="#000000" font-family="sans-serif" font-size="13" lengthAdjust="spacing" textLength="202.6172" x="579.15" y="196.0669">par Demandeur (resoumission)</text></g><!--link Constat_Accepte to Validee--><g class="link" data-entity-1="Constat_Accepte" data-entity-2="Validee" data-source-line="8" data-uid="lnk11" id="link_Constat_Accepte_Validee"><path d="M157.15,268.61 C130.7,276.55 102.11,289.38 82.15,310 C70.03,322.53 65.1757,335.5124 62.2057,350.6424" fill="none" id="Constat_Accepte-to-Validee" style="stroke:#181818;stroke-width:1;"/><polygon fill="#181818" points="61.05,356.53,66.7087,348.469,62.0131,351.6236,58.8585,346.9281,61.05,356.53" style="stroke:#181818;stroke-width:1;"/><text fill="#000000" font-family="sans-serif" font-size="13" lengthAdjust="spacing" textLength="126.6992" x="83.15" y="323.0669">par Validateur Chef</text></g><!--link Constat_Accepte to Rejetee_Constat--><g class="link" data-entity-1="Constat_Accepte" data-entity-2="Rejetee_Constat" data-source-line="9" data-uid="lnk13" id="link_Constat_Accepte_Rejetee_Constat"><path d="M219.02,280.49 C216.25,294.9 215.36,312.99 223.15,327 C229.89,339.12 235.5938,345.5627 247.2338,353.2527" fill="none" id="Constat_Accepte-to-Rejetee_Constat" style="stroke:#181818;stroke-width:1;"/><polygon fill="#181818" points="252.24,356.56,246.9357,348.2616,248.0682,353.8039,242.5259,354.9364,252.24,356.56" style="stroke:#181818;stroke-width:1;"/><text fill="#000000" font-family="sans-serif" font-size="13" lengthAdjust="spacing" textLength="126.6992" x="224.15" y="323.0669">par Validateur Chef</text></g><!--link Rejetee_Constat to Constat_Accepte--><g class="link" data-entity-1="Rejetee_Constat" data-entity-2="Constat_Accepte" data-source-line="10" data-uid="lnk14" id="link_Rejetee_Constat_Constat_Accepte"><path d="M341.06,356.51 C354.6,342.75 365.34,325.31 355.15,310 C341.43,289.39 323.8454,278.5768 300.8154,270.6768" fill="none" id="Rejetee_Constat-to-Constat_Accepte" style="stroke:#181818;stroke-width:1;"/><polygon fill="#181818" points="295.14,268.73,302.3552,275.4338,299.8695,270.3524,304.9509,267.8667,295.14,268.73" style="stroke:#181818;stroke-width:1;"/><text fill="#000000" font-family="sans-serif" font-size="13" lengthAdjust="spacing" textLength="251.4878" x="361.15" y="323.0669">par Compta. Tresorerie (resoumission)</text></g><!--link Validee to Payee--><g class="link" data-entity-1="Validee" data-entity-2="Payee" data-source-line="12" data-uid="lnk16" id="link_Validee_Payee"><path d="M58.15,407.4 C58.15,429.43 58.15,455.66 58.15,477.67" fill="none" id="Validee-to-Payee" style="stroke:#181818;stroke-width:1;"/><polygon fill="#181818" points="58.15,483.67,62.15,474.67,58.15,478.67,54.15,474.67,58.15,483.67" style="stroke:#181818;stroke-width:1;"/><text fill="#000000" font-family="sans-serif" font-size="13" lengthAdjust="spacing" textLength="160.9639" x="59.15" y="450.0669">par Compta. Fournisseur</text></g><!--link Payee to Cloturee--><g class="link" data-entity-1="Payee" data-entity-2="Cloturee" data-source-line="13" data-uid="lnk17" id="link_Payee_Cloturee"><path d="M58.15,534.4 C58.15,550.64 58.15,566.93 58.15,588.78" fill="none" id="Payee-to-Cloturee" style="stroke:#181818;stroke-width:1;"/><polygon fill="#181818" points="58.15,594.78,62.15,585.78,58.15,589.78,54.15,585.78,58.15,594.78" style="stroke:#181818;stroke-width:1;"/></g><!--SRC=[bP512i8m44NtESKiLT03k12aubf4t8YKeVtQQ9kK95L4lBj9IujKkt2PcVSodnbxbQfammNPZ5Dzb-fC9yujX3XCZZITBYWo06XE7gCL2bOfAYEQQjtNoZfsyJ99KBgMZ7HHEfxHpi1g0oFneMnnWGDYNs4djHfsliZ1H3GALbL8Qpqt5gAVAvXxpcNQkVMBNP2Z3AUVHXUWwGsOVUgVlNm5RqE6JpRyG5zTwyeeJuSpDFrwNAvTvHSZH9YAxarFGTJUSccIJDuyz7e3]--></g></svg>