<svg xmlns="http://www.w3.org/2000/svg" xmlns:xlink="http://www.w3.org/1999/xlink" contentStyleType="text/css" data-diagram-type="DESCRIPTION" height="575px" preserveAspectRatio="none" style="width:502px;height:575px;background:#FFFFFF;" version="1.1" viewBox="0 0 502 575" width="502px" zoomAndPan="magnify"><defs/><g><!--cluster Application de Bureau--><g class="cluster" data-entity="Application de Bureau" data-source-line="5" data-uid="ent0003" id="cluster_Application de Bureau"><path d="M8.63,144.8 L184.6437,144.8 A3.75,3.75 0 0 1 187.1437,147.3 L194.1437,167.0969 L313.63,167.0969 A2.5,2.5 0 0 1 316.13,169.5969 L316.13,395.49 A2.5,2.5 0 0 1 313.63,397.99 L8.63,397.99 A2.5,2.5 0 0 1 6.13,395.49 L6.13,147.3 A2.5,2.5 0 0 1 8.63,144.8" fill="none" style="stroke:#000000;stroke-width:1.5;"/><line style="stroke:#000000;stroke-width:1.5;" x1="6.13" x2="194.1437" y1="167.0969" y2="167.0969"/><text fill="#000000" font-family="sans-serif" font-size="14" font-weight="bold" lengthAdjust="spacing" textLength="175.0137" x="10.13" y="159.7951">Application de Bureau</text></g><!--cluster Stockage Partag?--><g class="cluster" data-entity="Stockage Partag&#233;" data-source-line="10" data-uid="ent0006" id="cluster_Stockage Partag&#233;"><path d="M83.63,446.99 L224.7394,446.99 A3.75,3.75 0 0 1 227.2394,449.49 L234.2394,469.2869 L475.63,469.2869 A2.5,2.5 0 0 1 478.13,471.7869 L478.13,566.08 A2.5,2.5 0 0 1 475.63,568.58 L83.63,568.58 A2.5,2.5 0 0 1 81.13,566.08 L81.13,449.49 A2.5,2.5 0 0 1 83.63,446.99" fill="none" style="stroke:#000000;stroke-width:1.5;"/><line style="stroke:#000000;stroke-width:1.5;" x1="81.13" x2="234.2394" y1="469.2869" y2="469.2869"/><text fill="#000000" font-family="sans-serif" font-size="14" font-weight="bold" lengthAdjust="spacing" textLength="140.1094" x="85.13" y="461.9851">Stockage Partag&#233;</text></g><!--entity desktop_app--><g class="entity" data-entity="desktop_app" data-source-line="6" data-uid="ent0004" id="entity_desktop_app"><rect fill="#F1F1F1" height="62.5938" rx="2.5" ry="2.5" style="stroke:#181818;stroke-width:0.5;" width="207.084" x="70.59" y="179.8"/><rect fill="#F1F1F1" height="10" style="stroke:#181818;stroke-width:0.5;" width="15" x="257.674" y="184.8"/><rect fill="#F1F1F1" height="2" style="stroke:#181818;stroke-width:0.5;" width="4" x="255.674" y="186.8"/><rect fill="#F1F1F1" height="2" style="stroke:#181818;stroke-width:0.5;" width="4" x="255.674" y="190.8"/><text fill="#000000" font-family="sans-serif" font-size="14" lengthAdjust="spacing" textLength="140.4102" x="85.59" y="212.7951">Application Desktop</text><text fill="#000000" font-family="sans-serif" font-size="14" lengthAdjust="spacing" textLength="167.084" x="85.59" y="229.092">(Python/CustomTkinter)</text></g><!--entity database_manager--><g class="entity" data-entity="database_manager" data-source-line="7" data-uid="ent0005" id="entity_database_manager"><rect fill="#F1F1F1" height="62.5938" rx="2.5" ry="2.5" style="stroke:#181818;stroke-width:0.5;" width="277.7881" x="22.24" y="319.39"/><rect fill="#F1F1F1" height="10" style="stroke:#181818;stroke-width:0.5;" width="15" x="280.0281" y="324.39"/><rect fill="#F1F1F1" height="2" style="stroke:#181818;stroke-width:0.5;" width="4" x="278.0281" y="326.39"/><rect fill="#F1F1F1" height="2" style="stroke:#181818;stroke-width:0.5;" width="4" x="278.0281" y="330.39"/><text fill="#000000" font-family="sans-serif" font-size="14" lengthAdjust="spacing" textLength="237.7881" x="37.24" y="352.3851">Gestionnaire de Base de Donn&#233;es</text><text fill="#000000" font-family="sans-serif" font-size="14" lengthAdjust="spacing" textLength="201.5303" x="37.24" y="368.682">(utils/database_manager.py)</text></g><!--entity sqlite_db--><g class="entity" data-entity="sqlite_db" data-source-line="11" data-uid="ent0007" id="entity_sqlite_db"><path d="M97.08,496.49 C97.08,486.49 168.1318,486.49 168.1318,486.49 C168.1318,486.49 239.1835,486.49 239.1835,496.49 L239.1835,538.0838 C239.1835,548.0838 168.1318,548.0838 168.1318,548.0838 C168.1318,548.0838 97.08,548.0838 97.08,538.0838 L97.08,496.49" fill="#F1F1F1" style="stroke:#181818;stroke-width:0.5;"/><path d="M97.08,496.49 C97.08,506.49 168.1318,506.49 168.1318,506.49 C168.1318,506.49 239.1835,506.49 239.1835,496.49" fill="none" style="stroke:#181818;stroke-width:0.5;"/><text fill="#000000" font-family="sans-serif" font-size="14" lengthAdjust="spacing" textLength="122.1035" x="107.08" y="523.4851">Base de Donn&#233;es</text><text fill="#000000" font-family="sans-serif" font-size="14" lengthAdjust="spacing" textLength="83.2959" x="107.08" y="539.782">SQLite (.db)</text></g><!--entity file_storage--><g class="entity" data-entity="file_storage" data-source-line="12" data-uid="ent0008" id="entity_file_storage"><path d="M276.93,481.99 L317.93,481.99 A3.75,3.75 0 0 1 320.43,484.49 L327.43,502.99 L459.3343,502.99 A2.5,2.5 0 0 1 461.8343,505.49 L461.8343,550.0838 A2.5,2.5 0 0 1 459.3343,552.5838 L276.93,552.5838 A2.5,2.5 0 0 1 274.43,550.0838 L274.43,484.49 A2.5,2.5 0 0 1 276.93,481.99" fill="#F1F1F1" style="stroke:#181818;stroke-width:0.5;"/><line style="stroke:#181818;stroke-width:0.5;" x1="274.43" x2="327.43" y1="502.99" y2="502.99"/><text fill="#000000" font-family="sans-serif" font-size="14" lengthAdjust="spacing" textLength="145.291" x="284.43" y="522.9851">Stockage de Fichiers</text><text fill="#000000" font-family="sans-serif" font-size="14" lengthAdjust="spacing" textLength="157.4043" x="284.43" y="539.282">(PJ: RIB, factures, etc.)</text></g><!--entity user--><g class="entity" data-entity="user" data-source-line="3" data-uid="ent0002" id="entity_user"><ellipse cx="174.1265" cy="14" fill="#F1F1F1" rx="8" ry="8" style="stroke:#181818;stroke-width:0.5;"/><path d="M174.1265,22 L174.1265,49 M161.1265,30 L187.1265,30 M174.1265,49 L161.1265,64 M174.1265,49 L187.1265,64" fill="none" style="stroke:#181818;stroke-width:0.5;"/><text fill="#000000" font-family="sans-serif" font-size="14" lengthAdjust="spacing" textLength="336.2529" x="6" y="78.4951">Utilisateur (Demandeur, Comptable, Validateur)</text></g><!--link user to desktop_app--><g class="link" data-entity-1="user" data-entity-2="desktop_app" data-source-line="15" data-uid="lnk9" id="link_user_desktop_app"><path d="M174.13,82.19 C174.13,111.56 174.13,145.88 174.13,173.35" fill="none" id="user-to-desktop_app" style="stroke:#181818;stroke-width:1;"/><polygon fill="#181818" points="174.13,179.35,178.13,170.35,174.13,174.35,170.13,170.35,174.13,179.35" style="stroke:#181818;stroke-width:1;"/><text fill="#000000" font-family="sans-serif" font-size="13" lengthAdjust="spacing" textLength="40.2188" x="175.13" y="124.8669">Utilise</text></g><!--link desktop_app to database_manager--><g class="link" data-entity-1="desktop_app" data-entity-2="database_manager" data-source-line="16" data-uid="lnk10" id="link_desktop_app_database_manager"><path d="M171.24,242.63 C169.09,265.43 166.7238,290.4865 164.5738,313.2665" fill="none" id="desktop_app-to-database_manager" style="stroke:#181818;stroke-width:1;"/><polygon fill="#181818" points="164.01,319.24,168.838,310.6557,164.4798,314.2621,160.8734,309.904,164.01,319.24" style="stroke:#181818;stroke-width:1;"/><text fill="#000000" font-family="sans-serif" font-size="13" lengthAdjust="spacing" textLength="146.5991" x="170.13" y="285.4569">D&#233;l&#232;gue CRUD/locking</text></g><!--link database_manager to sqlite_db--><g class="link" data-entity-1="database_manager" data-entity-2="sqlite_db" data-source-line="17" data-uid="lnk11" id="link_database_manager_sqlite_db"><path d="M162.43,382.26 C163.69,411.92 165.334,450.6555 166.594,480.1555" fill="none" id="database_manager-to-sqlite_db" style="stroke:#181818;stroke-width:1;"/><polygon fill="#181818" points="166.85,486.15,170.4623,476.9875,166.6366,481.1546,162.4696,477.3289,166.85,486.15" style="stroke:#181818;stroke-width:1;"/><text fill="#000000" font-family="sans-serif" font-size="13" lengthAdjust="spacing" textLength="173.9385" x="166.13" y="427.0569">SQL (transactions/verrous)</text></g><!--link desktop_app to file_storage--><g class="link" data-entity-1="desktop_app" data-entity-2="file_storage" data-source-line="18" data-uid="lnk12" id="link_desktop_app_file_storage"><path d="M278.08,237.24 C295.97,245.77 312.75,257.17 325.13,272.39 C374.36,332.94 375.815,445.2444 372.245,496.7344" fill="none" id="desktop_app-to-file_storage" style="stroke:#181818;stroke-width:1;"/><polygon fill="#181818" points="371.83,502.72,376.4429,494.0182,372.1758,497.732,368.4621,493.4649,371.83,502.72" style="stroke:#181818;stroke-width:1;"/><text fill="#000000" font-family="sans-serif" font-size="13" lengthAdjust="spacing" textLength="122.3447" x="372.13" y="355.2569">Sauve/R&#233;cup&#232;re PJ</text></g><!--SRC=[PL91JiCm4Bpd5QkSKgbjxXoGe148nA6qm0cfsYRRrAfZ6wyDGeZ_jE_8nzWqW08zsLhFpCxicdVAEFJO06-nic_ArB11pPGaM0Rh8NqCIYl6GD53Lb23ffBh66QsSG7NciRmX5fLHyGe1MI8J3v979Oxh0dI2-UqAZ4eQw0Yk8oUCARmaG2K8c8DcV0NLH3lWdNF9fk_Xwqr-InoiCs3c0tqtQJgCIjqxg_GDN4dOb1vElP3Ffw5rDe3iQX6oSIvMCQrFAuaanZrK_V-BVtl8VaSf5a6sz_cw0FMxQ5FyiE1zBJVylvE1O9iMgtx1loYfR2graBSM5sH7-WAzKgLMqM-ipg_FOF5pULOjb86cHoFWK8vxNKsIjDA9kE5rvdi1W-JoVbmE706_Gef6LQFg7yv1Lgq1ztkwqWmMpmMkHPFyYMI4sH7_qqXF8a8MV1eM6pAz3b_9UzjvD59rw7fZednbV95UoYZQ_Uoildj5m00]--></g></svg>