<svg xmlns="http://www.w3.org/2000/svg" xmlns:xlink="http://www.w3.org/1999/xlink" contentStyleType="text/css" data-diagram-type="DESCRIPTION" height="713px" preserveAspectRatio="none" style="width:296px;height:713px;background:#FFFFFF;" version="1.1" viewBox="0 0 296 713" width="296px" zoomAndPan="magnify"><defs/><g><!--cluster Vue--><g class="cluster" data-entity="Vue" data-source-line="3" data-uid="ent0002" id="cluster_Vue"><path d="M31.5,6 L62.7969,6 A3.75,3.75 0 0 1 65.2969,8.5 L72.2969,28.2969 L238.5,28.2969 A2.5,2.5 0 0 1 241,30.7969 L241,117.09 A2.5,2.5 0 0 1 238.5,119.59 L31.5,119.59 A2.5,2.5 0 0 1 29,117.09 L29,8.5 A2.5,2.5 0 0 1 31.5,6" fill="none" style="stroke:#000000;stroke-width:1.5;"/><line style="stroke:#000000;stroke-width:1.5;" x1="29" x2="72.2969" y1="28.2969" y2="28.2969"/><text fill="#000000" font-family="sans-serif" font-size="14" font-weight="bold" lengthAdjust="spacing" textLength="30.2969" x="33" y="20.9951">Vue</text></g><!--cluster Contr?leur--><g class="cluster" data-entity="Contr&#244;leur" data-source-line="6" data-uid="ent0004" id="cluster_Contr&#244;leur"><path d="M8.5,168.59 L93.7393,168.59 A3.75,3.75 0 0 1 96.2393,171.09 L103.2393,190.8869 L213.5,190.8869 A2.5,2.5 0 0 1 216,193.3869 L216,279.69 A2.5,2.5 0 0 1 213.5,282.19 L8.5,282.19 A2.5,2.5 0 0 1 6,279.69 L6,171.09 A2.5,2.5 0 0 1 8.5,168.59" fill="none" style="stroke:#000000;stroke-width:1.5;"/><line style="stroke:#000000;stroke-width:1.5;" x1="6" x2="103.2393" y1="190.8869" y2="190.8869"/><text fill="#000000" font-family="sans-serif" font-size="14" font-weight="bold" lengthAdjust="spacing" textLength="84.2393" x="10" y="183.5851">Contr&#244;leur</text></g><!--cluster Mod?le--><g class="cluster" data-entity="Mod&#232;le" data-source-line="9" data-uid="ent0006" id="cluster_Mod&#232;le"><path d="M23.5,331.19 L81.8604,331.19 A3.75,3.75 0 0 1 84.3604,333.69 L91.3604,353.4869 L286.5,353.4869 A2.5,2.5 0 0 1 289,355.9869 L289,704.17 A2.5,2.5 0 0 1 286.5,706.67 L23.5,706.67 A2.5,2.5 0 0 1 21,704.17 L21,333.69 A2.5,2.5 0 0 1 23.5,331.19" fill="none" style="stroke:#000000;stroke-width:1.5;"/><line style="stroke:#000000;stroke-width:1.5;" x1="21" x2="91.3604" y1="353.4869" y2="353.4869"/><text fill="#000000" font-family="sans-serif" font-size="14" font-weight="bold" lengthAdjust="spacing" textLength="57.3604" x="25" y="346.1851">Mod&#232;le</text></g><!--entity A--><g class="entity" data-entity="A" data-source-line="4" data-uid="ent0003" id="entity_A"><rect fill="#F1F1F1" height="62.5938" rx="2.5" ry="2.5" style="stroke:#181818;stroke-width:0.5;" width="179.1387" x="45.43" y="41"/><rect fill="#F1F1F1" height="10" style="stroke:#181818;stroke-width:0.5;" width="15" x="204.5687" y="46"/><rect fill="#F1F1F1" height="2" style="stroke:#181818;stroke-width:0.5;" width="4" x="202.5687" y="48"/><rect fill="#F1F1F1" height="2" style="stroke:#181818;stroke-width:0.5;" width="4" x="202.5687" y="52"/><text fill="#000000" font-family="sans-serif" font-size="14" lengthAdjust="spacing" textLength="139.1387" x="60.43" y="73.9951">Interface Utilisateur</text><text fill="#000000" font-family="sans-serif" font-size="14" lengthAdjust="spacing" textLength="113.8389" x="60.43" y="90.292">(CustomTkinter)</text></g><!--entity B--><g class="entity" data-entity="B" data-source-line="7" data-uid="ent0005" id="entity_B"><rect fill="#F1F1F1" height="62.5938" rx="2.5" ry="2.5" style="stroke:#181818;stroke-width:0.5;" width="177.6484" x="22.18" y="203.59"/><rect fill="#F1F1F1" height="10" style="stroke:#181818;stroke-width:0.5;" width="15" x="179.8284" y="208.59"/><rect fill="#F1F1F1" height="2" style="stroke:#181818;stroke-width:0.5;" width="4" x="177.8284" y="210.59"/><rect fill="#F1F1F1" height="2" style="stroke:#181818;stroke-width:0.5;" width="4" x="177.8284" y="214.59"/><text fill="#000000" font-family="sans-serif" font-size="14" lengthAdjust="spacing" textLength="137.6484" x="37.18" y="236.5851">Logique Applicative</text><text fill="#000000" font-family="sans-serif" font-size="14" lengthAdjust="spacing" textLength="132.9932" x="37.18" y="252.882">(app_controller.py)</text></g><!--entity C--><g class="entity" data-entity="C" data-source-line="10" data-uid="ent0007" id="entity_C"><rect fill="#F1F1F1" height="62.5938" rx="2.5" ry="2.5" style="stroke:#181818;stroke-width:0.5;" width="235.7471" x="37.13" y="366.19"/><rect fill="#F1F1F1" height="10" style="stroke:#181818;stroke-width:0.5;" width="15" x="252.8771" y="371.19"/><rect fill="#F1F1F1" height="2" style="stroke:#181818;stroke-width:0.5;" width="4" x="250.8771" y="373.19"/><rect fill="#F1F1F1" height="2" style="stroke:#181818;stroke-width:0.5;" width="4" x="250.8771" y="377.19"/><text fill="#000000" font-family="sans-serif" font-size="14" lengthAdjust="spacing" textLength="104.4053" x="52.13" y="399.1851">Logique M&#233;tier</text><text fill="#000000" font-family="sans-serif" font-size="14" lengthAdjust="spacing" textLength="195.7471" x="52.13" y="415.482">(remboursement_model.py)</text></g><!--entity D--><g class="entity" data-entity="D" data-source-line="11" data-uid="ent0008" id="entity_D"><rect fill="#F1F1F1" height="62.5938" rx="2.5" ry="2.5" style="stroke:#181818;stroke-width:0.5;" width="207.3779" x="48.31" y="505.78"/><rect fill="#F1F1F1" height="10" style="stroke:#181818;stroke-width:0.5;" width="15" x="235.6879" y="510.78"/><rect fill="#F1F1F1" height="2" style="stroke:#181818;stroke-width:0.5;" width="4" x="233.6879" y="512.78"/><rect fill="#F1F1F1" height="2" style="stroke:#181818;stroke-width:0.5;" width="4" x="233.6879" y="516.78"/><text fill="#000000" font-family="sans-serif" font-size="14" lengthAdjust="spacing" textLength="137.1289" x="63.31" y="538.7751">Acc&#232;s aux Donn&#233;es</text><text fill="#000000" font-family="sans-serif" font-size="14" lengthAdjust="spacing" textLength="167.3779" x="63.31" y="555.072">(database_manager.py)</text></g><!--entity E--><g class="entity" data-entity="E" data-source-line="12" data-uid="ent0009" id="entity_E"><path d="M54.82,655.37 C54.82,645.37 149.9992,645.37 149.9992,645.37 C149.9992,645.37 245.1784,645.37 245.1784,655.37 L245.1784,680.6669 C245.1784,690.6669 149.9992,690.6669 149.9992,690.6669 C149.9992,690.6669 54.82,690.6669 54.82,680.6669 L54.82,655.37" fill="#F1F1F1" style="stroke:#181818;stroke-width:0.5;"/><path d="M54.82,655.37 C54.82,665.37 149.9992,665.37 149.9992,665.37 C149.9992,665.37 245.1784,665.37 245.1784,655.37" fill="none" style="stroke:#181818;stroke-width:0.5;"/><text fill="#000000" font-family="sans-serif" font-size="14" lengthAdjust="spacing" textLength="170.3584" x="64.82" y="682.3651">Base de donn&#233;es SQLite</text></g><!--link A to B--><g class="link" data-entity-1="A" data-entity-2="B" data-source-line="15" data-uid="lnk10" id="link_A_B"><path d="M86.2,103.87 C76.02,112.76 66.67,123.41 61,135.59 C50.34,158.51 60.1664,179.2715 75.8764,198.5215" fill="none" id="A-to-B" style="stroke:#181818;stroke-width:1;"/><polygon fill="#181818" points="79.67,203.17,77.0785,193.6682,76.5086,199.2963,70.8806,198.7264,79.67,203.17" style="stroke:#181818;stroke-width:1;"/><text fill="#000000" font-family="sans-serif" font-size="13" lengthAdjust="spacing" textLength="77.3018" x="62" y="148.6569">Interactions</text></g><!--link B to A--><g class="link" data-entity-1="B" data-entity-2="A" data-source-line="18" data-uid="lnk13" id="link_B_A"><path d="M126.78,203.1 C133.52,188.25 140.61,169.93 144,152.59 C147.11,136.68 146.5528,124.6551 143.8928,109.8751" fill="none" id="B-to-A" style="stroke:#181818;stroke-width:1;"/><polygon fill="#181818" points="142.83,103.97,140.4874,113.5362,143.7156,108.8909,148.3609,112.1192,142.83,103.97" style="stroke:#181818;stroke-width:1;"/><text fill="#000000" font-family="sans-serif" font-size="13" lengthAdjust="spacing" textLength="65.6919" x="146" y="148.6569">Met &#224; jour</text></g><!--link B to C--><g class="link" data-entity-1="B" data-entity-2="C" data-source-line="16" data-uid="lnk11" id="link_B_C"><path d="M85.8,266.63 C76.89,281.27 70.52,299.06 77,315.19 C84.88,334.78 95.5944,348.2469 110.4344,361.9669" fill="none" id="B-to-C" style="stroke:#181818;stroke-width:1;"/><polygon fill="#181818" points="114.84,366.04,110.947,356.9932,111.1686,362.6457,105.5161,362.8674,114.84,366.04" style="stroke:#181818;stroke-width:1;"/><text fill="#000000" font-family="sans-serif" font-size="13" lengthAdjust="spacing" textLength="65.6919" x="78" y="311.2569">Met &#224; jour</text></g><!--link C to B--><g class="link" data-entity-1="C" data-entity-2="B" data-source-line="17" data-uid="lnk12" id="link_C_B"><path d="M156.41,365.69 C156.45,345.97 154.85,320.06 148,298.19 C144.58,287.26 142.025,281.3581 136.145,271.6781" fill="none" id="C-to-B" style="stroke:#181818;stroke-width:1;"/><polygon fill="#181818" points="133.03,266.55,134.2838,276.3187,135.6258,270.8234,141.1212,272.1654,133.03,266.55" style="stroke:#181818;stroke-width:1;"/><text fill="#000000" font-family="sans-serif" font-size="13" lengthAdjust="spacing" textLength="42.5737" x="152" y="311.2569">Notifie</text></g><!--link C to D--><g class="link" data-entity-1="C" data-entity-2="D" data-source-line="19" data-uid="lnk14" id="link_C_D"><path d="M154.33,429.02 C153.84,451.82 153.2916,476.8414 152.7916,499.6314" fill="none" id="C-to-D" style="stroke:#181818;stroke-width:1;"/><polygon fill="#181818" points="152.66,505.63,156.8564,496.7199,152.7697,500.6312,148.8584,496.5444,152.66,505.63" style="stroke:#181818;stroke-width:1;"/><text fill="#000000" font-family="sans-serif" font-size="13" lengthAdjust="spacing" textLength="40.2188" x="154" y="471.8469">Utilise</text></g><!--link D to E--><g class="link" data-entity-1="D" data-entity-2="E" data-source-line="20" data-uid="lnk15" id="link_D_E"><path d="M151.53,568.63 C151.16,592.17 150.7642,618.1307 150.4342,639.1507" fill="none" id="D-to-E" style="stroke:#181818;stroke-width:1;"/><polygon fill="#181818" points="150.34,645.15,154.4808,636.2139,150.4185,640.1506,146.4818,636.0883,150.34,645.15" style="stroke:#181818;stroke-width:1;"/><text fill="#000000" font-family="sans-serif" font-size="13" lengthAdjust="spacing" textLength="121.875" x="152" y="611.4369">Communique avec</text></g><!--SRC=[RP0vJWD144NpFaN94GJc00H8ipX0if4GImB8AlUKJUFUwCM047SXj7DkC1UZPcniX91Q7Vpw_zLNnQMo7WCQY8_Ok1Tb5p177Ka8ZtA92uB1RQO1l0k0ktERACnH4jmafLN4H3dSswCgn-JCDRDuVlm06A4G7mT2vMmAxPTczuuqTWlrd0aAxxMIcDIAc8FUJsNdTLfJEF5lMrRvcpLnJRlMz8SpQJT9KTSba9cv728PicbgN4Dw3wgwI25bkuw0-HLgPssxeSYn1XFECDBKeEKzX-KrPtw6C2Yxl-6tIyBLvLWbRiFE4TSK1Go7Pr32AVJ7GfcKir6KlLonFA44xISySKTHxSqNBgcvefsl-DTNixgzEucwLqQiLCwORFiZu8haDm00]--></g></svg>