<svg xmlns="http://www.w3.org/2000/svg" xmlns:xlink="http://www.w3.org/1999/xlink" contentStyleType="text/css" data-diagram-type="DESCRIPTION" height="810px" preserveAspectRatio="none" style="width:422px;height:810px;background:#FFFFFF;" version="1.1" viewBox="0 0 422 810" width="422px" zoomAndPan="magnify"><defs/><g><!--entity A--><g class="entity" data-entity="A" data-source-line="4" data-uid="ent0002" id="entity_A"><rect fill="#F1F1F1" height="36.2969" rx="2.5" ry="2.5" style="stroke:#181818;stroke-width:0.5;" width="208.7881" x="171.56" y="7"/><text fill="#000000" font-family="sans-serif" font-size="14" lengthAdjust="spacing" textLength="188.7881" x="181.56" y="29.9951">A. Accueil - Cam&#233;ra/Import</text></g><!--entity B--><g class="entity" data-entity="B" data-source-line="5" data-uid="ent0003" id="entity_B"><rect fill="#F1F1F1" height="36.2969" rx="2.5" ry="2.5" style="stroke:#181818;stroke-width:0.5;" width="200.5918" x="175.66" y="120.29"/><text fill="#000000" font-family="sans-serif" font-size="14" lengthAdjust="spacing" textLength="180.5918" x="185.66" y="143.2851">B. Traitement des images</text></g><!--entity C--><g class="entity" data-entity="C" data-source-line="6" data-uid="ent0004" id="entity_C"><rect fill="#F1F1F1" height="36.2969" rx="2.5" ry="2.5" style="stroke:#181818;stroke-width:0.5;" width="229.4805" x="161.22" y="233.59"/><text fill="#000000" font-family="sans-serif" font-size="14" lengthAdjust="spacing" textLength="209.4805" x="171.22" y="256.5851">C. Analyse par Google Gemini</text></g><!--entity D--><g class="entity" data-entity="D" data-source-line="7" data-uid="ent0005" id="entity_D"><rect fill="#F1F1F1" height="36.2969" rx="2.5" ry="2.5" style="stroke:#181818;stroke-width:0.5;" width="174.7588" x="188.58" y="346.89"/><text fill="#000000" font-family="sans-serif" font-size="14" lengthAdjust="spacing" textLength="154.7588" x="198.58" y="369.8851">D. &#201;cran de validation</text></g><!--entity E--><g class="entity" data-entity="E" data-source-line="8" data-uid="ent0006" id="entity_E"><rect fill="#F1F1F1" height="36.2969" rx="2.5" ry="2.5" style="stroke:#181818;stroke-width:0.5;" width="212.6572" x="169.63" y="460.18"/><text fill="#000000" font-family="sans-serif" font-size="14" lengthAdjust="spacing" textLength="192.6572" x="179.63" y="483.1751">E. Sauvegarde locale - Hive</text></g><!--entity F--><g class="entity" data-entity="F" data-source-line="9" data-uid="ent0007" id="entity_F"><rect fill="#F1F1F1" height="36.2969" rx="2.5" ry="2.5" style="stroke:#181818;stroke-width:0.5;" width="151.1953" x="200.36" y="573.48"/><text fill="#000000" font-family="sans-serif" font-size="14" lengthAdjust="spacing" textLength="131.1953" x="210.36" y="596.4751">F. Envoi par e-mail</text></g><!--entity G--><g class="entity" data-entity="G" data-source-line="10" data-uid="ent0008" id="entity_G"><rect fill="#F1F1F1" height="36.2969" rx="2.5" ry="2.5" style="stroke:#181818;stroke-width:0.5;" width="209.916" x="7" y="670.78"/><text fill="#000000" font-family="sans-serif" font-size="14" lengthAdjust="spacing" textLength="189.916" x="17" y="693.7751">G. G&#233;n&#233;ration Rapport PDF</text></g><!--entity H--><g class="entity" data-entity="H" data-source-line="11" data-uid="ent0009" id="entity_H"><rect fill="#F1F1F1" height="36.2969" rx="2.5" ry="2.5" style="stroke:#181818;stroke-width:0.5;" width="169.8643" x="27.03" y="768.07"/><text fill="#000000" font-family="sans-serif" font-size="14" lengthAdjust="spacing" textLength="149.8643" x="37.03" y="791.0651">H. Service comptable</text></g><!--entity I--><g class="entity" data-entity="I" data-source-line="12" data-uid="ent0010" id="entity_I"><rect fill="#F1F1F1" height="36.2969" rx="2.5" ry="2.5" style="stroke:#181818;stroke-width:0.5;" width="158.4688" x="251.72" y="670.78"/><text fill="#000000" font-family="sans-serif" font-size="14" lengthAdjust="spacing" textLength="138.4688" x="261.72" y="693.7751">I. Copie &#224; l'employ&#233;</text></g><!--link A to B--><g class="link" data-entity-1="A" data-entity-2="B" data-source-line="14" data-uid="lnk11" id="link_A_B"><path d="M275.96,43.53 C275.96,64.32 275.96,92.91 275.96,113.81" fill="none" id="A-to-B" style="stroke:#555555;stroke-width:1;"/><polygon fill="#555555" points="275.96,119.81,279.96,110.81,275.96,114.81,271.96,110.81,275.96,119.81" style="stroke:#555555;stroke-width:1;"/><text fill="#000000" font-family="sans-serif" font-size="13" lengthAdjust="spacing" textLength="99.4995" x="276.96" y="86.3569">Capture/Import</text></g><!--link B to C--><g class="link" data-entity-1="B" data-entity-2="C" data-source-line="15" data-uid="lnk12" id="link_B_C"><path d="M275.96,156.83 C275.96,177.62 275.96,206.21 275.96,227.1" fill="none" id="B-to-C" style="stroke:#555555;stroke-width:1;"/><polygon fill="#555555" points="275.96,233.1,279.96,224.1,275.96,228.1,271.96,224.1,275.96,233.1" style="stroke:#555555;stroke-width:1;"/><text fill="#000000" font-family="sans-serif" font-size="13" lengthAdjust="spacing" textLength="79.6948" x="276.96" y="199.6569">Envoi &#224; l'API</text></g><!--link C to D--><g class="link" data-entity-1="C" data-entity-2="D" data-source-line="16" data-uid="lnk13" id="link_C_D"><path d="M275.96,270.13 C275.96,290.91 275.96,319.5 275.96,340.4" fill="none" id="C-to-D" style="stroke:#555555;stroke-width:1;"/><polygon fill="#555555" points="275.96,346.4,279.96,337.4,275.96,341.4,271.96,337.4,275.96,346.4" style="stroke:#555555;stroke-width:1;"/><text fill="#000000" font-family="sans-serif" font-size="13" lengthAdjust="spacing" textLength="118.9233" x="276.96" y="312.9569">Donn&#233;es extraites</text></g><!--link D to E--><g class="link" data-entity-1="D" data-entity-2="E" data-source-line="17" data-uid="lnk14" id="link_D_E"><path d="M275.96,383.42 C275.96,404.21 275.96,432.8 275.96,453.7" fill="none" id="D-to-E" style="stroke:#555555;stroke-width:1;"/><polygon fill="#555555" points="275.96,459.7,279.96,450.7,275.96,454.7,271.96,450.7,275.96,459.7" style="stroke:#555555;stroke-width:1;"/><text fill="#000000" font-family="sans-serif" font-size="13" lengthAdjust="spacing" textLength="137.3506" x="276.96" y="426.2469">Correction/Validation</text></g><!--link E to F--><g class="link" data-entity-1="E" data-entity-2="F" data-source-line="18" data-uid="lnk15" id="link_E_F"><path d="M275.96,496.72 C275.96,517.51 275.96,546.1 275.96,566.99" fill="none" id="E-to-F" style="stroke:#555555;stroke-width:1;"/><polygon fill="#555555" points="275.96,572.99,279.96,563.99,275.96,567.99,271.96,563.99,275.96,572.99" style="stroke:#555555;stroke-width:1;"/><text fill="#000000" font-family="sans-serif" font-size="13" lengthAdjust="spacing" textLength="121.3228" x="276.96" y="539.5469">Depuis l'historique</text></g><!--link F to G--><g class="link" data-entity-1="F" data-entity-2="G" data-source-line="19" data-uid="lnk16" id="link_F_G"><path d="M245.88,610.11 C216.38,627.25 176.8377,650.2254 147.3077,667.3854" fill="none" id="F-to-G" style="stroke:#555555;stroke-width:1;"/><polygon fill="#555555" points="142.12,670.4,151.9113,669.3366,146.4431,667.8878,147.8918,662.4196,142.12,670.4" style="stroke:#555555;stroke-width:1;"/></g><!--link G to H--><g class="link" data-entity-1="G" data-entity-2="H" data-source-line="20" data-uid="lnk17" id="link_G_H"><path d="M111.96,707.4 C111.96,724.6 111.96,744.7 111.96,761.85" fill="none" id="G-to-H" style="stroke:#555555;stroke-width:1;"/><polygon fill="#555555" points="111.96,767.85,115.96,758.85,111.96,762.85,107.96,758.85,111.96,767.85" style="stroke:#555555;stroke-width:1;"/></g><!--link F to I--><g class="link" data-entity-1="F" data-entity-2="I" data-source-line="21" data-uid="lnk18" id="link_F_I"><path d="M286.05,610.11 C295.97,627.3 308.0317,648.2029 317.9317,665.3629" fill="none" id="F-to-I" style="stroke:#555555;stroke-width:1;"/><polygon fill="#555555" points="320.93,670.56,319.8972,660.7654,318.4314,666.2291,312.9678,664.7632,320.93,670.56" style="stroke:#555555;stroke-width:1;"/></g><!--SRC=[JP4zRiCm38LtdO98XqvsfYmT2ZZ-YxUWBRgp3kiGrOyhoKvpXDwYQyxXYrLMWi2J8BvFvEEJ-sBTeqK5xeW7SsBTmITAHyBTbSnQSygDD1OUDfkD49PQZxgJ1AiiXQnj1s892UIefel5TQDwO_qAq46sXBSfl5baJugqXmCvO8KTkKXkbsGUscgKPqSGF41jp5okIR7cIETBkaXX-cqjwj0JHfHyGCz6Hx1OWcKAhpYCrA4Df3GjXce2EnufmkKIhb8ezMWuEg148Si8LKkeJg6UBdfUUnu9BzZFkyE-g29SB-5T64zsv9QWDQht-26lStTBgaaXDpqJJ7yW7qdrqfodI-GQ8J98acVOmbD8k_U3fLlQOXk5F0XNr_5rjcz47eKY28NHmMc8dNvy_0SdYYYMSpjZPnDXYVNxFK9HHhsQ7rC_i0izZ-oyiVmzaAYYMeiwdhlRlVa7]--></g></svg>